<svg t="1715001000000" class="icon" viewBox="0 0 1024 1024" version="1.1" xmlns="http://www.w3.org/2000/svg" p-id="3" width="48" height="48">
  <path d="M832 112H724V72c0-4.4-3.6-8-8-8h-56c-4.4 0-8 3.6-8 8v40H428V72c0-4.4-3.6-8-8-8h-56c-4.4 0-8 3.6-8 8v40H248c-35.3 0-64 28.7-64 64v736c0 35.3 28.7 64 64 64h584c35.3 0 64-28.7 64-64V176c0-35.3-28.7-64-64-64z m-12 800H248V176h108v40c0 4.4 3.6 8 8 8h56c4.4 0 8-3.6 8-8v-40h224v40c0 4.4 3.6 8 8 8h56c4.4 0 8-3.6 8-8v-40h108v736zM304 400h416c4.4 0 8-3.6 8-8v-48c0-4.4-3.6-8-8-8H304c-4.4 0-8 3.6-8 8v48c0 4.4 3.6 8 8 8zM304 544h416c4.4 0 8-3.6 8-8v-48c0-4.4-3.6-8-8-8H304c-4.4 0-8 3.6-8 8v48c0 4.4 3.6 8 8 8zM304 688h416c4.4 0 8-3.6 8-8v-48c0-4.4-3.6-8-8-8H304c-4.4 0-8 3.6-8 8v48c0 4.4 3.6 8 8 8z" p-id="4" fill="#1296db"></path>
</svg>